# xmcd
#
# Track frame offsets: 
#        150
#        13138
#        24905
#        37322
#        52585
#        66628
#        81465
#        92070
#        103158
#        116380
#        126970
#        133962
#
# Disc length: 1955 seconds
#
# Revision: 2
# Processed by: cddbd v1.5.2PL0 Copyright (c) Steve Scherf et al.
# Submitted via: ExactAudioCopy v1.0b3
#
DISCID=aa07a10c
DTITLE=Nat King Cole - Collection
DYEAR=2001
DGENRE=Blues
TTITLE0=Nature boy
TTITLE1=Love is a many splendoured thing (Fain-Webster)
TTITLE2=Unforgettable
TTITLE3=Embraceable you
TTITLE4=Darling, je vous aime beaucoup
TTITLE5=The frim fram sauce
TTITLE6=Too marvelous for words
TTITLE7=Youre the cream in my coffee
TTITLE8=Gee baby, aint i good to you
TTITLE9=The sand and the sea
TTITLE10=You stepped out of a dream
TTITLE11=Route 66 (Get Your Kicks On) 
EXTD=
EXTT0=
EXTT1=
EXTT2=
EXTT3=
EXTT4=
EXTT5=
EXTT6=
EXTT7=
EXTT8=
EXTT9=
EXTT10=
EXTT11=
PLAYORDER=
